<svg width="134" height="134" viewBox="0 0 134 134" fill="none" xmlns="http://www.w3.org/2000/svg">
<g clip-path="url(#clip0)">
<path d="M110.414 60.8339L109.346 59.2322C109.346 47.1722 103.714 42.0739 97.2861 38.3261C99.16 37.7922 101.306 37.2478 101.84 34.84C105.326 34.0339 105.86 32.4322 106.132 30.82C106.928 30.2861 109.88 28.6739 109.608 25.7322C111.22 24.6539 112.288 23.0522 111.754 20.9061C113.628 19.0322 113.9 17.42 113.366 15.8078C115.512 13.1278 114.434 11.7878 113.628 10.4478C115.24 7.50607 113.9 4.29217 109.346 4.82607C107.472 2.14607 103.714 2.67998 103.18 2.67998C102.646 1.87388 101.84 1.06779 99.16 1.33998C97.2861 -0.272211 95.4122 -2.21208e-05 93.5278 0.806071C91.12 -1.06784 89.5078 0.533885 87.6339 1.06779C84.6922 -2.21208e-05 84.1478 1.33998 82.5461 1.87388C79.3322 1.06779 78.5261 2.67998 76.9139 4.29217H75.04C70.2139 7.23388 67.8061 12.8661 67 15.8078C66.1939 12.8661 63.7861 6.97217 58.96 4.29217H57.0861C55.4739 2.67998 54.6678 1.33998 51.4539 1.87388C50.1139 1.33998 49.3078 -2.21208e-05 46.3661 1.06779C45.2878 0.806071 44.22 -2.2091e-05 42.88 -2.2091e-05C42.0739 -2.2091e-05 41.54 0.272167 40.7339 0.806071C38.5878 0.272167 36.7139 -2.20388e-05 34.84 1.33998C32.16 1.06779 31.3539 1.61217 30.5478 2.67998C30.0139 2.67998 25.9939 2.14607 24.3922 4.82607C19.8278 4.29217 18.4878 7.50607 20.1 10.4478C19.2939 11.7878 18.2261 13.1278 20.3722 15.8078C19.8278 17.1478 20.1 18.76 21.9739 20.9061C21.44 23.0522 22.5078 24.3922 24.12 25.46C23.8478 28.4122 26.8 30.0139 27.6061 30.5478C27.8678 32.16 28.6739 33.7722 31.8878 34.5678C32.4322 36.9861 34.5678 37.52 36.4522 38.0539C30.0139 41.8122 24.3922 46.9 24.3922 58.96L23.3139 60.5722C16.08 65.3878 9.38 79.8661 19.8278 91.6539C20.6339 95.4122 21.7122 98.0922 22.78 101.034C24.3922 112.832 34.3061 118.454 36.9861 118.988C40.7339 121.94 45.0261 124.62 50.3861 126.766C55.4739 132.126 61.3678 134.272 67 134.272H67.2722C72.8939 134.272 78.5261 132.126 83.8861 126.766C89.5078 124.892 93.5278 121.94 97.2861 118.988C99.9661 118.454 109.88 112.832 111.492 101.034C112.56 98.0922 113.628 95.4122 114.434 91.6539C124.62 79.8661 117.92 65.3878 110.414 60.8339ZM103.714 58.6878C103.452 63.5139 78.2539 41.54 82.5461 41.0061C94.3339 39.1322 103.986 46.0939 103.714 58.6878ZM76.1078 7.76779C76.38 8.84607 76.6522 9.65217 76.9139 9.65217C78.2539 8.03998 79.3322 6.69998 81.2061 5.08779C81.2061 5.89389 80.6722 6.97217 81.74 7.50607C82.8078 6.16607 83.8861 5.08779 85.76 4.01998C84.9539 5.35998 85.4878 5.89389 86.0322 6.42779C87.3722 5.35998 88.7122 4.01998 91.12 3.21388C90.5861 4.01998 89.5078 4.82607 90.5861 5.89389C91.9261 5.08779 93.2661 4.29217 96.48 3.48607C95.6739 4.29217 94.3339 5.08779 95.14 5.89389C96.7522 5.35998 98.6261 4.82607 100.772 4.55388C99.6939 5.35998 98.8878 6.16607 99.6939 6.97217C101.568 6.42779 103.986 5.63217 106.394 6.16607L104.792 7.76779C105.054 8.03998 108.812 8.03998 111.22 8.03998C110.414 9.37998 109.346 10.72 108.812 12.8661C109.074 13.1278 110.414 12.8661 111.492 12.8661C110.414 15.5461 108.268 16.08 107.734 17.1478C108.54 17.6922 109.608 17.6922 110.686 17.1478C109.88 19.0322 108.006 20.1 106.666 21.7122C106.928 21.9739 107.734 22.2461 109.074 21.9739C107.734 23.3139 106.132 24.6539 104.248 25.9939C104.52 26.2661 105.86 26.2661 106.928 26.5278C105.326 28.14 102.908 29.2078 101.034 30.2861C102.112 31.0922 102.908 30.82 103.714 30.82C102.374 32.16 99.6939 32.6939 97.5478 33.5C98.0922 34.3061 98.3539 34.3061 99.4322 34.5678C97.0139 35.9078 93.5278 35.3739 92.46 35.9078C92.7322 36.7139 93.2661 36.9861 94.0722 37.52C90.0522 37.7922 79.3322 37.2478 77.1861 28.9461C81.2061 24.3922 88.7122 19.0322 101.306 12.5939C91.3922 16.08 82.5461 20.3722 75.04 26.5278C65.9322 22.2461 71.8261 11.7878 76.1078 7.76779ZM67 37.52C73.1661 37.52 80.9339 42.0739 80.9339 46.6278C80.9339 50.6478 75.5739 53.6 67 53.6C58.6878 53.6 53.0661 49.58 53.0661 45.8322C53.0661 42.88 60.0278 37.52 67 37.52ZM35.3739 34.3061C36.4522 34.0339 36.7139 34.0339 37.2478 33.2278C34.84 32.4322 32.4322 31.8878 31.0922 30.5478C31.8878 30.5478 32.6939 30.82 33.7722 30.0139C31.6261 28.9461 29.48 28.14 27.8678 26.2661C28.9461 26.2661 30.0139 26.2661 30.5478 25.7322C28.6739 24.6539 27.0722 23.3139 25.7322 21.7122C27.3339 21.9739 27.8678 21.7122 28.14 21.44C26.8 20.1 24.9261 18.76 24.12 16.8861C25.1878 17.1478 26.2661 17.42 27.0722 16.8861C25.9939 16.08 23.8478 15.5461 22.78 12.8661C23.8478 12.8661 25.1878 13.1278 25.46 12.8661C24.9261 10.72 23.8478 9.37998 23.0522 8.03998C25.46 8.03998 29.48 8.03998 29.2078 7.76779L27.6061 6.16607C30.0139 5.63217 32.6939 6.16607 34.3061 6.97217C35.1122 6.42779 34.3061 5.63217 33.2278 4.55388C35.3739 4.82607 37.2478 5.35998 38.86 5.89389C39.6661 5.08779 38.3261 4.29217 37.52 3.48607C40.7339 4.01998 42.0739 4.82607 43.4139 5.89389C44.4922 4.82607 43.4139 4.01998 42.88 3.21388C45.56 4.29217 46.9 5.35998 48.24 6.69998C48.7739 6.16607 49.3078 5.63217 48.5122 4.29217C50.1139 5.35998 51.4539 6.42779 52.5322 7.76779C53.6 6.97217 53.0661 6.16607 53.0661 5.35998C54.94 6.69998 56.0078 8.31217 57.3478 9.91389C57.62 9.65217 57.8922 9.10779 58.1539 8.03998C62.4461 12.3322 68.6122 22.78 59.7661 26.8C52.26 20.6339 43.4139 16.08 33.5 12.8661C46.0939 19.2939 53.6 24.6539 57.62 29.2078C55.4739 37.52 44.7539 37.7922 40.7339 37.7922C41.54 37.52 42.3461 36.9861 42.3461 36.18C41.54 35.1122 37.7922 35.6461 35.3739 34.3061ZM50.1139 40.7339C54.4061 41.54 29.2078 63.5139 28.9461 58.4261C28.4122 45.56 38.3261 38.5878 50.1139 40.7339ZM23.5861 89.5078C17.42 84.6922 15.5461 70.2139 26.8 63.7861C33.7722 61.9122 29.2078 91.9261 23.5861 89.5078ZM47.4339 115.24C43.9478 117.386 35.6461 116.58 29.7522 108.006C25.7322 100.772 26.2661 93.5278 28.9461 91.3922C33.2278 88.7122 39.6661 92.1878 44.7539 98.0922C49.0461 103.18 51.1922 112.56 47.4339 115.24ZM40.7339 83.8861C34.3061 79.8661 33.2278 70.4861 38.3261 62.98C43.1522 55.4739 52.26 52.7939 58.6878 57.0861C65.1261 61.1061 66.1939 70.4861 61.1061 77.9922C56.0078 85.2261 46.9 87.9061 40.7339 83.8861ZM67 129.708C59.4939 129.98 51.9878 123.552 51.9878 121.134C51.9878 117.92 61.1061 115.24 67.2722 115.512C73.4278 115.24 81.4678 117.386 81.74 120.328C81.74 123.552 74.2339 129.98 67 129.708ZM82.5461 97.0139C82.5461 104.792 75.8461 111.22 67.2722 111.22C58.6878 111.22 51.9878 105.054 51.9878 97.2861C51.9878 97.2861 51.9878 97.2861 51.9878 97.0139C51.9878 89.2461 58.6878 82.8078 67.2722 82.8078C75.5739 83.08 82.5461 89.2461 82.5461 97.0139ZM72.8939 77.1861C68.0678 69.68 69.1461 60.3 75.3122 56.28C81.74 52.26 90.8478 54.94 95.6739 62.1739C100.5 69.68 99.4322 79.06 93.2661 83.08C87.1 87.3722 77.9922 84.6922 72.8939 77.1861ZM103.986 108.268C97.5478 117.386 88.7122 117.648 85.2261 115.24C81.74 112.026 84.42 101.84 89.2461 96.48C94.6061 90.3139 100.5 86.2939 104.52 89.5078C106.928 92.1878 108.54 102.112 103.986 108.268ZM109.074 88.9739C103.452 91.3922 98.8878 61.3678 105.86 63.2522C117.114 69.9522 114.968 84.1478 109.074 88.9739Z" fill="black"/>
</g>
<defs>
<clipPath id="clip0">
<rect width="134" height="134" fill="white"/>
</clipPath>
</defs>
</svg>
